Coordinates
version=1
nRows=16
nColumns=36
inDegrees=yes

Units are S.I. units (second, meters, Newtons, ...)
If the header above contains a line with 'inDegrees', this indicates whether rotational values are in degrees (yes) or radians (no).

endheader
time	pelvis_tilt	pelvis_list	pelvis_rotation	pelvis_tx	pelvis_ty	pelvis_tz	hip_flexion_r	hip_adduction_r	hip_rotation_r	knee_angle_r	knee_angle_r_beta	ankle_angle_r	subtalar_angle_r	mtp_angle_r	hip_flexion_l	hip_adduction_l	hip_rotation_l	knee_angle_l	knee_angle_l_beta	ankle_angle_l	subtalar_angle_l	mtp_angle_l	lumbar_extension	lumbar_bending	lumbar_rotation	arm_flex_r	arm_add_r	arm_rot_r	elbow_flex_r	pro_sup_r	arm_flex_l	arm_add_l	arm_rot_l	elbow_flex_l	pro_sup_l
      7.40000000	    -12.42110586	      5.32818030	    -12.56613305	      0.99472301	      0.89913133	      0.21849221	     12.85880229	      6.16096111	      7.73315938	      7.12814319	      0.12440957	      5.44537167	    -16.28238234	     -7.49999987	     37.31291052	      1.21875715	      4.21665651	     77.06033487	      1.34495657	     14.27687588	    -13.71813500	     -7.49999987	      6.20770728	      2.17124818	     -4.38656814	     36.85644443	     -0.87843515	     53.40600411	    115.38612664	    102.33691329	     54.19473607	     10.94645405	     69.15267428	    117.51186878	     99.74426920
      7.41666670	    -12.16670521	      5.47215111	    -12.62161807	      0.99499744	      0.89993276	      0.21835787	     12.19719257	      6.03703828	      8.00209865	      6.44356602	      0.11246144	      4.78904425	    -17.05628543	     -7.49999987	     36.57666004	      1.54306991	      3.84872392	     77.43044474	      1.35141620	     13.74482848	    -13.80148531	     -7.49999987	      6.05496808	      1.96527778	     -4.41128983	     36.78288129	     -0.64857884	     53.56974621	    114.82351585	    101.31579088	     54.19166650	     10.67231588	     69.10718749	    117.27996796	     98.75074916
      7.43333330	    -12.39786909	      5.50932979	    -12.62253580	      0.99519072	      0.89955011	      0.21861815	     12.28448879	      6.09861249	      7.87213940	      6.10789617	      0.10660290	      4.71384138	    -16.93834535	     -7.49999987	     36.41358492	      1.65977555	      3.45900365	     77.70103138	      1.35613883	     13.30066191	    -13.80467553	     -7.49999987	      6.50773995	      2.04139994	     -4.42396844	     36.49014516	     -0.70012632	     53.72084807	    114.34074476	    100.28366641	     53.87632893	     10.90032568	     69.27084711	    116.83346498	     97.67644363
      7.45000000	    -12.49702666	      5.59529918	    -12.66289012	      0.99518003	      0.90010595	      0.21855040	     12.30881703	      6.10593734	      7.72295375	      6.03604081	      0.10534879	      4.58562284	    -17.00977944	     -7.49999987	     36.51347755	      1.80197772	      3.33371423	     78.30212647	      1.36662992	     12.63122997	    -13.92832960	     -7.49999987	      6.64629722	      2.07785203	     -4.33881301	     36.45061402	     -0.71071490	     54.06840224	    114.06662834	     98.53948837	     53.87282480	     11.13301666	     69.46685745	    116.67921520	     96.01949170
      7.46666670	    -12.39870284	      5.81585107	    -12.86960098	      0.99501141	      0.90001777	      0.21933418	     12.12547384	      5.98276253	      8.28722170	      5.86040377	      0.10228334	      4.12555285	    -17.87010569	     -7.49999987	     36.18235110	      1.91294804	      2.84566734	     78.48898857	      1.36989128	     12.09917725	    -13.96783416	     -7.49999987	      6.70887235	      1.86389087	     -4.17695368	     36.43203257	     -0.65801662	     54.02630957	    113.49058315	    102.13523673	     53.78363654	     11.08271879	     69.28473911	    116.48088944	     99.95982403
      7.48333330	    -12.46243392	      5.90938723	    -12.90707227	      0.98971235	      0.90034048	      0.21515352	     12.33074920	      5.90753480	      8.24957083	      5.94237254	      0.10371397	      4.23198758	    -17.92304961	     -7.49999987	     36.29859207	      1.99957334	      2.62614484	     78.62383752	      1.37224484	     11.76258184	    -13.89728051	     -7.49999987	      6.57336293	      1.90128113	     -4.22099010	     37.02788822	     -0.93727430	     53.87883730	    113.47154079	    102.14678931	     54.29395107	     10.92540281	     68.98689577	    116.44091133	     99.95926837
      7.50000000	    -12.57849302	      5.92288871	    -13.01614130	      0.98948971	      0.90011153	      0.21565075	     12.75894401	      6.01635132	      8.04997470	      6.29281694	      0.10983037	      4.44625471	    -17.89655943	     -7.49999987	     36.46812945	      1.94513209	      2.49311841	     78.91409524	      1.37731079	     11.40244384	    -14.15941593	     -7.49999987	      6.44498538	      2.13194749	     -4.29193012	     37.45463537	     -1.00181590	     54.09351651	    113.81017988	    101.36361086	     54.48249936	     10.84288653	     68.94887849	    116.59295459	     99.25505599
      7.51666670	    -12.54498223	      6.01605009	    -13.13920338	      0.98945905	      0.90087491	      0.21572601	     12.95286001	      6.00977459	      8.20767978	      6.52250784	      0.11383924	      4.22167349	    -18.56136273	     -7.49999987	     36.31151098	      2.02506777	      2.37983389	     78.90079209	      1.37707860	     11.20942167	    -14.12953944	     -7.49999987	      6.28395607	      2.18786458	     -4.35365529	     37.72197736	     -1.03994846	     54.32302035	    114.00447775	    101.29913597	     54.54063368	     10.77321499	     68.79008261	    116.66338243	     99.33026295
      7.53333330	    -12.90093547	      6.12022060	    -13.10441358	      0.98964503	      0.90022036	      0.21610306	     13.43657677	      5.99440789	      7.97526960	      6.65396874	      0.11613366	      4.61285930	    -17.83622978	     -7.49999987	     36.52800650	      2.06525877	      2.46761015	     78.92814645	      1.37755603	     11.01612434	    -13.99552901	     -7.49999987	      6.93838086	      2.20552457	     -4.32644872	     37.45078620	     -0.99587285	     54.34471368	    113.11111300	     99.56416831	     54.32575396	     10.81463182	     68.84783943	    116.14215642	     97.61088795
      7.55000000	    -12.52418229	      6.16593995	    -13.19267851	      0.99494030	      0.90170074	      0.22033147	     12.86279212	      5.96309522	      8.80402916	      6.54184636	      0.11417676	      4.08461667	    -18.81139180	     -7.49999987	     35.61082142	      2.14346322	      2.58972096	     78.58409070	      1.37155112	     11.17173615	    -13.48859729	     -7.49999987	      6.59331564	      2.15755194	     -4.38062544	     37.11501394	     -0.69709383	     54.63085986	    113.53276245	    100.15876993	     53.93665473	     10.64211297	     69.20221641	    116.83285063	     98.31000450
      7.56666670	    -12.68882550	      6.16507221	    -13.19209519	      0.99485660	      0.90117901	      0.22044828	     12.91006606	      6.07031173	      8.97536111	      6.55329023	      0.11437649	      4.45472366	    -18.44746516	     -7.49999987	     35.34388625	      2.07192108	      2.86130793	     78.33336851	      1.36717519	     11.21541414	    -13.28296354	     -7.49999987	      7.14751895	      2.20929873	     -4.42433965	     36.83412208	     -0.52952228	     54.70709205	    113.30054387	     99.51008236	     53.64559435	     10.80991876	     69.32690627	    116.52664672	     97.70019756
      7.58333330	    -12.56697480	      5.98264241	    -13.16907568	      0.99517971	      0.90194818	      0.22026617	     12.47907271	      6.27651053	      9.37936849	      6.29555092	      0.10987809	      3.91377666	    -19.08662336	     -7.49999987	     34.85783773	      1.83466761	      3.13249811	     78.11133988	      1.36330006	     11.54650173	    -12.48178611	     -7.49999987	      7.05796433	      2.41010181	     -4.50305891	     36.52410365	     -0.64428077	     54.23391569	    113.65539415	     99.81128815	     53.19571010	     10.72715702	     69.42087383	    116.95716179	     98.11596340
      7.60000000	    -12.71678932	      5.95398898	    -13.14667378	      0.99499127	      0.89816473	      0.22006810	     12.51677343	      6.39392048	      9.53388795	      6.30202821	      0.10999114	      4.13695587	    -18.87837165	     -7.49999987	     34.81468292	      1.77025346	      3.38188849	     77.96517365	      1.36074898	     11.73655525	    -12.32581010	     -7.49999987	      7.44181552	      2.38770051	     -4.57583556	     36.67438643	     -0.56996073	     53.79922607	    113.39097888	     99.37312086	     53.23681006	     10.81171692	     69.27388484	    116.72332233	     97.70262552
      7.61666670	    -12.77314583	      5.84092557	    -13.13124815	      0.99503735	      0.89575697	      0.22018287	     12.54233598	      6.58897687	      9.73615398	      6.44602697	      0.11250439	      4.01331100	    -19.41453852	     -7.49999987	     34.68228609	      1.55200290	      3.61337578	     77.90962979	      1.35977956	     12.02737305	    -11.86061318	     -7.49999987	      7.58587736	      2.50198975	     -4.68523201	     36.81522061	     -0.32553489	     52.93838329	    113.86080608	     99.50239974	     53.48495697	     10.84442065	     68.81657423	    117.07720436	     97.91351191
      7.63333330	    -12.84316825	      5.78008416	    -13.14290741	      0.99492810	      0.89845343	      0.22016039	     12.51694585	      6.71511371	     10.02559259	      6.43477526	      0.11230801	      4.08293607	    -19.63790484	     -7.49999987	     34.62852998	      1.37719249	      3.87972647	     77.68542878	      1.35586651	     11.91145365	    -11.57273442	     -7.49999987	      7.70184567	      2.58066346	     -4.65447719	     36.70773027	     -0.45534038	     52.89644331	    113.66470938	     98.98748013	     53.34274032	     10.75231415	     68.97873900	    117.00099942	     97.43051173
      7.65000000	    -12.92714385	      5.72873122	    -13.19630592	      0.99504016	      0.89899732	      0.22001209	     12.53218432	      6.83504561	     10.22663400	      6.42606540	      0.11215600	      4.02494858	    -19.72925608	     -7.49999987	     34.61449816	      1.17404019	      3.99547561	     77.34698556	      1.34995956	     11.86630275	    -11.34044198	     -7.49999987	      7.79350924	      2.68386907	     -4.60855640	     36.64898929	     -0.40198251	     52.38304709	    113.66394830	    102.06711208	     53.12826606	     10.97771575	     68.91540640	    116.65582259	    100.70840534
